<svg width="101" height="24" viewBox="0 0 101 24" fill="none" xmlns="http://www.w3.org/2000/svg">
<g clip-path="url(#clip0_2_125)">
<path d="M8.25295 5.09861C7.02541 5.09861 6.75263 5.63929 6.75263 6.72064V8.61302H9.88966L9.61687 11.7219H6.75263V21.0486H2.93363V11.7219H0.342163V8.61302H2.93363V6.72064C2.93363 3.61174 4.16116 1.9897 7.70738 1.9897H9.88966V4.82827L8.25295 5.09861ZM10.1624 14.4253C10.1624 10.9109 11.7992 8.34268 15.3454 8.34268C17.2549 8.34268 18.346 9.28887 18.8916 10.5054V8.61302H22.5742V21.0486H18.8916V19.1563C18.346 20.3728 17.1185 21.319 15.3454 21.319C11.7992 21.319 10.1624 18.7508 10.1624 15.2363V14.4253ZM13.9814 15.2363C13.9814 17.1287 14.6634 18.3452 16.4365 18.3452C18.2096 18.3452 18.7552 17.2639 18.7552 15.5067V14.2902C18.7552 12.5329 17.9368 11.4516 16.4365 11.4516C14.9362 11.4516 13.9814 12.6681 13.9814 14.5605V15.2363ZM30.485 8.34268C31.9853 8.34268 33.3492 8.61302 34.1676 9.1537L33.3492 11.8571C32.5368 11.4879 31.6514 11.3032 30.7578 11.3164C28.7119 11.3164 27.7571 12.5329 27.7571 14.5605V15.2363C27.7571 17.2639 28.7119 18.4804 30.7578 18.4804C31.6514 18.4937 32.5368 18.309 33.3492 17.9397L34.1676 20.6431C33.3492 21.1838 31.9853 21.4542 30.485 21.4542C25.984 21.4542 23.9381 19.0211 23.9381 15.2363V14.6957C23.9381 10.7757 25.984 8.34268 30.485 8.34268ZM34.5768 15.3715V14.2902C34.5768 10.7757 36.6227 8.47785 40.7144 8.47785C44.8062 8.47785 46.3065 10.7757 46.3065 14.2902V16.3177H38.3958C38.5322 18.0749 39.2141 18.7508 41.3964 18.7508C43.5787 18.7508 44.2607 18.4804 45.4882 17.9397L46.1702 20.508C45.2154 21.0486 43.1695 21.4542 41.26 21.4542C36.3499 21.319 34.5768 19.0211 34.5768 15.3715ZM38.3958 13.7495H43.0331V13.4791C43.0331 12.1274 42.4875 11.0461 40.8508 11.0461C39.2141 11.0461 38.3958 11.9923 38.3958 13.7495ZM60.355 15.2363C60.355 18.7508 58.7183 21.319 55.1721 21.319C53.2626 21.319 51.8986 20.3728 51.4895 19.1563V21.0486H47.9433V2.39521L51.7623 1.9897V10.2351C52.3078 9.1537 53.5354 8.20751 55.3085 8.20751C58.8547 8.20751 60.4914 10.7757 60.4914 14.2902L60.355 15.2363ZM56.536 14.4253C56.536 12.6681 55.854 11.3164 54.0809 11.3164C52.3078 11.3164 51.6259 12.3978 51.6259 14.155V15.5067C51.6259 17.2639 52.4442 18.3452 54.0809 18.3452C55.7176 18.3452 56.536 16.9935 56.536 15.2363V14.4253ZM61.7189 15.1012V14.4253C61.7189 10.9109 63.7648 8.20751 67.993 8.20751C72.2212 8.20751 74.2671 10.7757 74.2671 14.4253V15.1012C74.2671 18.6156 72.2212 21.319 67.993 21.319C63.7648 21.319 61.7189 18.7508 61.7189 15.1012ZM70.4481 14.155C70.4481 12.5329 69.7661 11.1812 67.993 11.1812C66.2199 11.1812 65.5379 12.5329 65.5379 14.155V15.3715C65.5379 16.9935 66.2199 18.3452 67.993 18.3452C69.7661 18.3452 70.4481 16.9935 70.4481 15.3715V14.155ZM75.3582 15.1012V14.4253C75.3582 10.9109 77.4041 8.20751 81.6323 8.20751C85.8605 8.20751 87.9063 10.7757 87.9063 14.4253V15.1012C87.9063 18.6156 85.8605 21.319 81.6323 21.319C77.4041 21.319 75.3582 18.7508 75.3582 15.1012ZM84.0873 14.155C84.0873 12.5329 83.4054 11.1812 81.6323 11.1812C79.8592 11.1812 79.1772 12.5329 79.1772 14.155V15.3715C79.1772 16.9935 79.8592 18.3452 81.6323 18.3452C83.4054 18.3452 84.0873 16.9935 84.0873 15.3715V14.155ZM93.0893 14.5605L96.7719 8.61302H100.864L96.9083 14.6957L101 21.0486H97.0447L93.0893 14.966V21.0486H89.2703V2.39521L93.0893 1.9897V14.5605Z" fill="#9CB0C9"/>
</g>
<defs>
<clipPath id="clip0_2_125">
<rect width="100.658" height="23.114" fill="white" transform="translate(0.342041 0.0973244)"/>
</clipPath>
</defs>
</svg>
