<svg width="90" height="30" viewBox="0 0 90 30" fill="none" xmlns="http://www.w3.org/2000/svg">
<path d="M22.0057 10.3499H11.559V13.4452H18.9587C18.596 17.798 14.9687 19.6358 11.559 19.6358C7.18208 19.6358 3.38549 16.202 3.38549 11.3898C3.38549 6.69844 7.0128 3.09531 11.559 3.09531C15.0654 3.09531 17.1451 5.34424 17.1451 5.34424L19.3215 3.09531C19.3215 3.09531 16.5405 0 11.4623 0C5.00569 0 0 5.46515 0 11.3414C0 17.1209 4.7155 22.7553 11.6316 22.7553C17.7255 22.7553 22.175 18.5718 22.175 12.4054C22.175 11.0996 22.0057 10.3499 22.0057 10.3499Z" fill="#9CB0C9"/>
<path d="M30.5415 8.10099C26.2613 8.10099 23.1902 11.4623 23.1902 15.3556C23.1902 19.3215 26.1646 22.7311 30.5899 22.7311C34.6041 22.7311 37.8687 19.66 37.8687 15.4523C37.8929 10.5917 34.0721 8.10099 30.5415 8.10099ZM30.5899 10.9787C32.6937 10.9787 34.7009 12.6714 34.7009 15.4282C34.7009 18.1124 32.7179 19.8777 30.5899 19.8777C28.2442 19.8777 26.4064 18.0156 26.4064 15.4282C26.4064 12.8649 28.2201 10.9787 30.5899 10.9787Z" fill="#9CB0C9"/>
<path d="M46.5509 8.10099C42.2706 8.10099 39.1995 11.4623 39.1995 15.3556C39.1995 19.3215 42.1739 22.7311 46.5992 22.7311C50.6135 22.7311 53.878 19.66 53.878 15.4523C53.878 10.5917 50.0573 8.10099 46.5509 8.10099ZM46.5992 10.9787C48.7031 10.9787 50.7102 12.6714 50.7102 15.4282C50.7102 18.1124 48.7273 19.8777 46.5992 19.8777C44.2536 19.8777 42.4157 18.0156 42.4157 15.4282C42.3916 12.8649 44.2294 10.9787 46.5992 10.9787Z" fill="#9CB0C9"/>
<path d="M62.2206 8.10099C58.2789 8.10099 55.2078 11.5348 55.2078 15.404C55.2078 19.8051 58.7868 22.7311 62.1723 22.7311C64.2519 22.7311 65.3643 21.909 66.1865 20.9417V22.3926C66.1865 24.9075 64.663 26.431 62.3415 26.431C60.1168 26.431 58.9802 24.7624 58.5933 23.8193L55.7882 25.0043C56.7797 27.1081 58.7868 29.3087 62.3657 29.3087C66.2832 29.3087 69.2576 26.8421 69.2576 21.6913V8.53627H66.1865V9.76956C65.2434 8.77809 63.9376 8.10099 62.2206 8.10099ZM62.5108 10.9787C64.4454 10.9787 66.4283 12.623 66.4283 15.4282C66.4283 18.2816 64.4454 19.8535 62.4866 19.8535C60.3828 19.8535 58.4482 18.1607 58.4482 15.4523C58.424 12.6472 60.4553 10.9787 62.5108 10.9787Z" fill="#9CB0C9"/>
<path d="M82.872 8.10099C79.1721 8.10099 76.0526 11.0512 76.0526 15.404C76.0526 20.0228 79.5348 22.7553 83.2347 22.7553C86.33 22.7553 88.2404 21.0626 89.3528 19.5391L86.8136 17.8464C86.1607 18.862 85.0483 19.8535 83.2347 19.8535C81.1792 19.8535 80.2361 18.7169 79.6557 17.6287L89.4737 13.5661L88.9658 12.3812C88.0227 10.0356 85.798 8.10099 82.872 8.10099ZM83.017 10.9061C84.3471 10.9061 85.3143 11.6074 85.7254 12.4779L79.1721 15.2105C78.8819 13.0825 80.889 10.9061 83.017 10.9061Z" fill="#9CB0C9"/>
<path d="M74.6015 0.750019H71.3853V22.3204H74.6015V0.750019Z" fill="#9CB0C9"/>
</svg>
