<svg width="83" height="19" viewBox="0 0 83 19" fill="none" xmlns="http://www.w3.org/2000/svg">
<path d="M26.1097 3.39829C25.8094 2.28054 24.9253 1.39635 23.8075 1.09606C21.7889 0.545525 13.6643 0.545525 13.6643 0.545525C13.6643 0.545525 5.53982 0.562207 3.5212 1.11274C2.40345 1.41303 1.51926 2.29722 1.21897 3.41497C0.68512 5.43359 0.68512 9.65434 0.68512 9.65434C0.68512 9.65434 0.68512 13.8751 1.23565 15.9104C1.53594 17.0281 2.42013 17.9123 3.53788 18.2126C5.5565 18.7632 13.681 18.7632 13.681 18.7632C13.681 18.7632 21.8056 18.7632 23.8242 18.2126C24.9419 17.9123 25.8261 17.0281 26.1264 15.9104C26.6769 13.8918 26.6769 9.65434 26.6769 9.65434C26.6769 9.65434 26.6603 5.43359 26.1097 3.39829Z" fill="#9CB0C9"/>
<path d="M17.8183 9.65435L11.0785 5.75057V13.5581L17.8183 9.65435Z" fill="white"/>
<path d="M38.3884 17.1116C37.8713 16.7612 37.5042 16.2274 37.2874 15.4933C37.0705 14.7593 36.9704 13.7917 36.9704 12.5738V10.9222C36.9704 9.70439 37.0872 8.70342 37.3374 7.96938C37.5876 7.21865 37.9713 6.6848 38.5052 6.35114C39.0391 6.01749 39.723 5.83398 40.5739 5.83398C41.408 5.83398 42.092 6.0008 42.5925 6.35114C43.093 6.70148 43.4767 7.23533 43.7102 7.96938C43.9438 8.70342 44.0606 9.68771 44.0606 10.9056V12.5572C44.0606 13.775 43.9438 14.7426 43.7102 15.4766C43.4767 16.2107 43.1097 16.7445 42.5925 17.0949C42.0753 17.4285 41.3746 17.612 40.5071 17.612C39.6063 17.6287 38.9056 17.4452 38.3884 17.1116ZM41.2745 15.3265C41.4247 14.9595 41.4914 14.3422 41.4914 13.5081V9.95463C41.4914 9.13717 41.4247 8.53659 41.2745 8.16957C41.1244 7.78586 40.8742 7.60235 40.5238 7.60235C40.1735 7.60235 39.9399 7.78586 39.7898 8.16957C39.6396 8.55327 39.5729 9.13717 39.5729 9.95463V13.5081C39.5729 14.3422 39.6396 14.9595 39.7731 15.3265C39.9066 15.6935 40.1568 15.877 40.5238 15.877C40.8742 15.877 41.1244 15.6935 41.2745 15.3265ZM77.8433 12.6072V13.1911L77.91 14.8427C77.9601 15.2097 78.0435 15.4766 78.1769 15.6435C78.3104 15.8103 78.5273 15.8937 78.8109 15.8937C79.1946 15.8937 79.4615 15.7436 79.595 15.4433C79.7451 15.143 79.8118 14.6425 79.8285 13.9585L82.0473 14.092C82.064 14.1921 82.064 14.3255 82.064 14.4924C82.064 15.5434 81.7804 16.3275 81.1965 16.8446C80.6126 17.3618 79.8118 17.6287 78.7608 17.6287C77.4929 17.6287 76.6087 17.2283 76.1083 16.4442C75.6078 15.6602 75.3409 14.4256 75.3409 12.774V10.7554C75.3409 9.05376 75.6078 7.80255 76.125 7.01846C76.6588 6.23436 77.5597 5.83398 78.8276 5.83398C79.7118 5.83398 80.3791 6.0008 80.8462 6.31778C81.3133 6.63475 81.647 7.13524 81.8472 7.81923C82.0473 8.50323 82.1308 9.43746 82.1308 10.6386V12.5905H77.8433V12.6072ZM78.1769 7.80255C78.0435 7.96938 77.9601 8.21962 77.91 8.58664C77.86 8.95366 77.8433 9.50419 77.8433 10.2549V11.0724H79.7118V10.2549C79.7118 9.52088 79.6951 8.97034 79.645 8.58664C79.595 8.20294 79.5116 7.93601 79.3781 7.78586C79.2446 7.63572 79.0444 7.55231 78.7775 7.55231C78.4939 7.56899 78.2937 7.6524 78.1769 7.80255ZM32.149 12.3903L29.2296 1.84678H31.782L32.7997 6.61807C33.0666 7.80255 33.2501 8.80352 33.3836 9.62097H33.4503C33.5337 9.02039 33.7339 8.03611 34.0342 6.63475L35.0852 1.84678H37.6377L34.6848 12.3736V17.4285H32.1657V12.3903H32.149Z" fill="#9CB0C9"/>
<path d="M52.3352 6.05085V17.4452H50.3333L50.1164 16.0439H50.0664C49.5158 17.0949 48.6984 17.6287 47.614 17.6287C46.8633 17.6287 46.2961 17.3785 45.9457 16.878C45.5787 16.3775 45.4119 15.6101 45.4119 14.5591V6.05085H47.981V14.4089C47.981 14.9094 48.0311 15.2765 48.1478 15.4933C48.2646 15.7102 48.4481 15.8103 48.6984 15.8103C48.9153 15.8103 49.1321 15.7436 49.3323 15.6101C49.5325 15.4766 49.6827 15.2931 49.7828 15.0929V6.05085H52.3352Z" fill="#9CB0C9"/>
<path d="M65.498 6.05085V17.4452H63.496L63.2791 16.0439H63.2291C62.6786 17.0949 61.8611 17.6287 60.7767 17.6287C60.026 17.6287 59.4588 17.3785 59.1084 16.878C58.7414 16.3775 58.5746 15.6101 58.5746 14.5591V6.05085H61.1437V14.4089C61.1437 14.9094 61.1938 15.2765 61.3106 15.4933C61.4273 15.7102 61.6109 15.8103 61.8611 15.8103C62.078 15.8103 62.2949 15.7436 62.495 15.6101C62.6952 15.4766 62.8454 15.2931 62.9455 15.0929V6.05085H65.498Z" fill="#9CB0C9"/>
<path d="M59.3086 3.91545H56.7561V17.4452H54.2537V3.91545H51.7012V1.84678H59.2919V3.91545H59.3086ZM73.9728 7.86928C73.8226 7.15192 73.5724 6.63475 73.2221 6.3011C72.8717 5.98412 72.4046 5.8173 71.7873 5.8173C71.3202 5.8173 70.8698 5.95076 70.4694 6.21768C70.0523 6.48461 69.752 6.83495 69.5185 7.2687H69.5018V1.26289H67.0327V17.4285H69.1515L69.4184 16.3442H69.4684C69.6686 16.7279 69.9689 17.0281 70.3526 17.2617C70.7565 17.483 71.21 17.5978 71.6706 17.5954C72.5381 17.5954 73.172 17.195 73.5891 16.3942C73.9895 15.5934 74.2064 14.3422 74.2064 12.6573V10.8555C74.2064 9.58761 74.1229 8.58664 73.9728 7.86928ZM71.6205 12.5238C71.6205 13.3579 71.5871 14.0086 71.5204 14.4757C71.4537 14.9428 71.3369 15.2765 71.1701 15.4766C71.0032 15.6768 70.7864 15.7769 70.5194 15.7769C70.3026 15.7769 70.1191 15.7269 69.9355 15.6268C69.752 15.5267 69.6186 15.3765 69.5018 15.1764V8.70342C69.5852 8.38645 69.7354 8.13621 69.9522 7.93601C70.1691 7.73582 70.386 7.63572 70.6362 7.63572C70.9032 7.63572 71.1033 7.73582 71.2368 7.93601C71.387 8.13621 71.4704 8.48655 71.5371 8.97035C71.5871 9.45415 71.6205 10.1381 71.6205 11.039V12.5238Z" fill="#9CB0C9"/>
</svg>
